<?xml version="1.0" encoding="UTF-8"?>
<!-- Created with Inkscape (http://www.inkscape.org/) -->
<svg width="256" height="256" version="1.1" viewBox="0 0 256 256" xmlns="http://www.w3.org/2000/svg">
 <path d="m234.22 8.459c-0.4714 0.020101-1.0324 0.10456-1.7324 0.33789-1.023 0.341-1.3283 0.53975-1.6875 0.72461-1e-3 6.195e-4 -5e-3 0.00134-6e-3 0.00195-0.45501-0.00911-1.0699 0.059272-1.8066 0.36133-1.3434 0.55074-1.875 1.0457-2.8359 1.7578-0.961 0.71207-2.0261 1.5674-3.0664 2.4629-1.0403 0.89544-2.0444 1.8173-2.8984 2.7129-0.42703 0.44778-0.81466 0.88337-1.1855 1.3789-0.37089 0.49554-0.79116 0.89978-1.1016 2.209-0.1072 0.45222 5e-3 0.32316-0.0215 0.56445a4 4 0 0 0-0.084 0.17969 4 4 0 0 0 0.0684 0.19141c0.014 0.30716-0.0659 0.8694-0.043 1.1328 0.0418 0.48098 0.10234 0.97933 0.16211 1.4883 0.11954 1.0179 0.22461 2.1786 0.22461 2.3848 0 0.46099-0.17443 1.4772 0.043 3.0156 0.21735 1.5384 1.4283 3.8681 3.4043 4.9043 0.73975 0.38791 0.99545 0.34715 1.3535 0.39453-0.14254 0.02675 0.17395 0.38585 1.5586 1.1426 0.69392 0.37923 1.0977 0.36779 1.5606 0.43555 0.0471 0.06317-0.044 0.05182 0.46875 0.35938 1.1338 0.67998 1.3446 0.53126 1.6445 0.58008 0.29991 0.04882 0.53265 0.0696 0.77734 0.08789 0.48939 0.03659 1.0068 0.05283 1.5977 0.0625 1.1817 0.01933 2.6266 0.0067 4.1055-0.01758 2.9578-0.0485 6.1947-0.14258 6.834-0.14258a4 4 0 0 0 4-4 4 4 0 0 0-4-4c-1.1953 0-4.09 0.09544-6.9648 0.14258-1.4374 0.02357-2.8333 0.03411-3.8438 0.01758-0.14199-0.0023-0.193-0.0082-0.31836-0.01172-0.0165-0.05896 0.14207-0.05512-0.7207-0.5293-0.76057-0.41795-1.2274-0.42786-1.7129-0.48047-0.30405-0.22891-0.5693-0.45174-1.2305-0.79492-0.32844-0.17048-0.3284-0.08389-0.57422-0.16602 0.01-0.32837 0.0176-0.38919 0.0176-1 0-0.06932-0.0146-0.1209-0.0156-0.18945 0.98573 0.21635 1.7665 0.299 2.9277 0.53125 2.1084 0.42168 3.2594-0.0047 4.1973-0.12109 0.3442-0.04272 0.51089-5.95e-4 0.67383 0.02344 0.14161 0.09415 0.0733 0.12464 0.25 0.2168 1.0215 0.53279 1.1344 0.40263 1.3633 0.43945s0.39656 0.05338 0.56836 0.06836c0.3436 0.02996 0.68852 0.04654 1.0781 0.06055 0.77922 0.02802 1.7103 0.03868 2.6465 0.03711 0.93621-0.0016 1.8656-0.01442 2.6387-0.04297 0.38652-0.01427 0.72864-0.03152 1.0586-0.05859 0.16498-0.01354 0.32307-0.02827 0.53125-0.05859 0.20819-0.03032 0.29604 0.06561 1.2051-0.33984 1.867-0.83276 2.3252-2.1478 2.6152-2.9473 0.29008-0.79949 0.38466-1.4364 0.45703-2.0312 0.14474-1.1896 0.1289-2.2422 0.1289-2.6445 0-3.4464-1.4447-6.6976-3.8984-8.4961-2.4537-1.7985-5.2808-2.2031-7.9941-2.2031-0.0118 0-0.54422-0.046354-1.2246-0.087891-0.3402-0.020768-0.72197-0.065023-1.1934-0.044922zm-218.27 5.1953a4 4 0 0 0-1.25 0.05664 4 4 0 0 0-3.1133 4.7246c-0.0642-0.31227-0.48982 2.9454-0.9375 6.207-0.22384 1.6308-0.38356 3.4193 0.03906 5.3965 0.42263 1.9772 1.7238 4.2417 3.8652 5.5039 3.6036 2.124 7.6997 2.2026 10.988 0.81055-0.01349 0.63288-0.06641 1.7456-0.06641 2.0918 0 1.8259 0.28399 3.8908 0.4082 5.9141s-0.39645 4.184 0.01172 3.3652c-1.0658 2.138-1.3949 4.151-2.0879 6.2617-0.34647 1.0554-0.72186 2.0301-1.0195 2.6172-0.12705 0.25059-0.23686 0.34942-0.29102 0.40234-0.03924 0.01906-0.03554 0.01749-0.07226 0.03516-0.0599-0.01138-0.13888-0.05041-0.19531-0.05859-1.5176-0.22011-2.4268 0.04254-3.9648 0.4375-0.912 0.2342-1.5212 0.66106-1.9629 1.0684-0.15526-0.01134-0.26311 0.0023-0.48047-0.06836-0.7581-0.24635-1.7051-0.93756-1.5273-0.75977a4 4 0 0 0-5.6582 0 4 4 0 0 0 0 5.6582c1.3931 1.3931 2.8634 2.108 4.7129 2.709 1.8495 0.60101 4.1329 1.1693 6.7637-0.19336 0.42622-0.22076 0.58177-0.42966 0.84375-0.65039 1.4866 0.51939 2.351 0.17964 2.8223 0.02734 1.0156-0.32821 1.5881-0.66731 2.916-1.3652 1.9773-1.0392 2.6081-2.3974 3.2305-3.625 0.62235-1.2276 1.0767-2.4966 1.4844-3.7383 0.81529-2.4834 1.6923-5.2814 1.6465-5.1895 1.4802-2.9692 0.95824-5.0818 0.81445-7.4238-0.14379-2.3421-0.39453-4.7346-0.39453-5.4238 0-0.71212 0.05354-3.3876 0.18945-5.8809 0.06796-1.2466 0.15729-2.4741 0.25977-3.3828 0.02149-0.19058 0.06995-0.31246 0.11328-0.49414 0.37971-0.37765 0.80002-0.93914 1.0977-1.7715 0.59597-1.6667 0.41-2.637 0.35742-3.5254-0.05258-0.88839-0.12305-1.675-0.12305-1.7852v-2.8516a4.0004 4.0004 0 0 0-8 0v0.125c-0.07744 0.14491-0.35853 0.6606-0.74023 1.6953-0.62794 1.7022-0.32464 2.7334-0.2207 3.2754-1.0129 2.4539-2.4166 4.3261-3.5957 5.0605-1.2581 0.78358-2.0476 1.0072-4.1973-0.25976-0.13322-0.07852-0.01285 0.15009-0.10547-0.2832-0.09262-0.43329-0.10136-1.4287 0.06445-2.6367 0.33162-2.4161 1.6403-5.0509 0.84766-8.9062a4 4 0 0 0-3.4727-3.1699zm218.97 2.834c0.36221 0.02211 0.88883 0.10352 1.7129 0.10352 1.7754 0 2.8958 0.38516 3.2656 0.65625 0.36985 0.27109 0.62695 0.36848 0.62695 2.043 0 0.02998-4e-3 0.08075-4e-3 0.11328-0.23131 0.0022-0.40928 0.0094-0.64453 0.0098-0.80745 0.0014-1.5926-0.0097-2.2012-0.0293-0.0649-0.04083-0.0263-0.04706-0.0977-0.08789-2.4368-1.3946-4.0535-0.8167-5.252-0.66797-1.1985 0.14873-2.2321 0.09929-1.6445 0.2168-0.18081-0.03616-0.39449-0.08938-0.57812-0.12891 0.26407-0.20629 0.5708-0.47173 0.80664-0.64648 0.5187-0.38434 0.60621-0.43131 0.75195-0.53125 0.33584-0.02968 0.62411-0.01444 1.0801-0.17188 1.0822-0.37362 1.6907-0.70626 2.0391-0.87695 0.0444-2e-3 0.0837-0.0053 0.13868-2e-3zm-8.2793 11.744c0.0223-0.0015 0.10011 0.03926 0.125 0.03906-0.10904 0.03947-0.33494 0.08471-0.38281 0.09375-0.12089 0.02284-0.0561-0.11235 0.25781-0.13281zm1.2285 7.9922c0.12832-0.02424-8e-3 0.09053-0.38281 0.09375 0.10946-0.0397 0.33501-0.08472 0.38281-0.09375zm-29.135 4.127c-0.29808 0.0022-0.55514 0.01367-0.76563 0.01367-2.3996 0-4.691 0.07702-6.957 1.3359-2.2661 1.2589-3.7088 3.4016-4.8828 5.916-0.78965 1.6913-0.66737 2.743-0.6582 3.8926 9e-3 1.1496 0.10636 2.3073 0.20117 3.4277 0.18222 2.1534 0.11208 4.3676 0.20117 4.1836-0.0454 0.08629-0.078 0.15031-0.12891 0.24609-0.11066 0.20813-0.22622 0.42435-0.33007 0.62305-0.10385 0.1987-0.0425-0.17719-0.41211 0.9082a4.0004 4.0004 0 0 0 0 2e-3c-0.17478 0.51392-0.15139 0.72311-0.19336 1.0488-0.17107 0.49378-0.34262 0.98866-0.51367 1.4824a4 4 0 0 0 2.4707 5.0879 4 4 0 0 0 5.0898-2.4688c0.2378-0.6864 0.4751-1.3742 0.71289-2.0605a4.0004 4.0004 0 0 0 0.10352-0.61133c0.0474-0.08911 0.0828-0.1581 0.13476-0.25586 0.11638-0.21887 0.2373-0.44507 0.34961-0.66602 0.0562-0.11047 0.10962-0.21758 0.17188-0.35156 0.0623-0.13398 0.11268-0.0958 0.29883-0.81836 0.72745-2.8237 0.20185-4.8473 0.0176-7.0254-0.0922-1.089-0.16817-2.1077-0.17382-2.8164-3e-3 -0.32195 0.0504-0.56386 0.0762-0.69922 0.68811-1.3643 1.1586-1.9436 1.3516-2.0508 0.21695-0.12053 1.0139-0.33008 3.0703-0.33008 0.45761 0 0.21644-0.0298 0.36328-0.02344 0.088 0.71882 7e-3 1.8225 0.42969 3.5664 0.42811 1.7663 1.1166 3.1273 1.7637 4.3242-2e-3 0.02234-2e-3 0.02316-4e-3 0.04687-0.0215 0.32364-0.21911 0.66572 0.25 1.959 0.11693 0.32226 0.27556 0.4358 0.41797 0.67383-5e-3 0.2144 0.0113 0.63891-0.10157 1.2559-0.23688 1.2954-1.0248 3.3189 0.39063 6.0605 0.17939 0.34748 0.0469-0.26703 0.0469 0.94336a4 4 0 0 0 4 4 4 4 0 0 0 4-4c0-1.1636-0.11028-3.0072-0.93945-4.6133 0.46002 0.89106 0.13606 0.33412 0.37109-0.95117 0.23505-1.2853 1.024-3.2801-0.34765-6.0234-6e-3 -0.01181-0.0117-0.01179-0.0176-0.02344 4e-3 -0.4372 0.0929-1.049-0.55469-2.2266-0.75884-1.3798-1.2762-2.3853-1.5-3.3086-3e-3 -0.01427-0.055-1.4134-0.32422-3.1152-0.26918-1.7018-1.1958-4.5112-3.9141-5.8145-1.4144-0.6781-2.6702-0.7506-3.5644-0.74414zm-142.34 3.0684c-0.30196-0.0058-0.60577-0.0017-0.91211 0.01367-2.4507 0.12261-5.165 1.3524-6.7871 3.5938-1.6221 2.2413-2.2188 5.044-2.2188 8.3359 0 0.0055-0.10072 1.1693-0.16797 2.3164-0.06725 1.1471-0.4429 2.1652 0.49805 4.3398 0.59266 1.3697 1.9931 2.4277 3.0547 2.7852 1.0616 0.35748 1.8306 0.33156 2.418 0.31055 0.88109-0.03152 1.7134 0.10255 1.4336 2e-3 1.2558 0.3559 2.4996 0.73461 4.0957 0.86133 1.602 0.12719 3.4304-0.28384 5.1895-1.0469 0.42953 0.03297 0.88744-0.02743 1.4727-0.14063a4 4 0 0 0 0.18164 0.4375 4 4 0 0 0 5.6582 0c1.4562-1.4562 1.578-2.7681 1.6992-3.8398 0.12119-1.0718 0.07863-1.9906-0.13672-2.9844-0.09704-0.44785-0.0895-1.7566-0.22852-3.4453-0.13902-1.6887-0.59044-4.2764-2.8184-6.0918-0.01529-0.01246-0.04144-0.01884-0.05664-0.03125a4 4 0 0 0-0.03711-0.04297c-3.7651-2.8862-7.8085-5.2864-12.338-5.3731zm-0.51172 8.0039c0.79654-0.03985 2.6918 0.72131 4.7656 1.8164 0.05771 0.3759 0.10372 0.77172 0.18164 1.1152 0.24829 1.0945 0.55952 2.1362 0.75586 2.9082-0.49944 0.07529-0.99577 0.03532-1.4316 0.26953-1.0091 0.54222-1.1688 0.51374-1.7109 0.4707-0.5421-0.04304-1.6311-0.3535-3.3711-0.81445-0.36228-0.09597-0.43058-0.03659-0.70898-0.08398 0.05079-0.54672 0.11328-1.0453 0.11328-1.7422 1e-6 -2.258 0.48199-3.3463 0.69922-3.6465 0.21723-0.30016 0.10411-0.2628 0.70703-0.29297zm-30.506 7.7266c0.041 0.05752 0.16362 0.11546 0.19531 0.16797 0.29383 0.48688 0.33361 0.71371 0.33398 0.71484 3.86e-4 0.0012-0.36168-0.5408-0.5293-0.88281zm139.65 3.1074a4 4 0 0 0-2.8281 1.1699 4 4 0 0 0 0 5.6582l0.67383 0.67383a4 4 0 0 0 5.6562 0 4 4 0 0 0 0-5.6562l-0.67383-0.67578a4 4 0 0 0-2.8281-1.1699zm-145.99 1.4688c0.07168 0.09407 0.2157 0.16558 0.30469 0.26367-0.07581-0.06441-0.13744-0.03588-0.20898-0.10938-0.07759-0.07971-0.03044-0.07378-0.0957-0.1543zm143.24 12.994a4 4 0 0 0-3.7129 3.3301c-0.14083 0.83886-0.21502 1.3268-0.30274 1.8594-0.54923 0.65912-0.61063 0.99662-0.68359 1.207-0.35777 1.0317-0.3251 1.287-0.51367 2.416-0.51463 3.0813-0.53909 5.9684-0.54102 8.8105-0.0749 0.22191-0.18172 0.52314-0.30078 0.96484-0.13449 0.49894-0.3201 1.0941-0.25391 2.1465 0.0662 1.0523 0.91074 3.1258 2.6191 3.918 1.9982 0.9265 3.6326 0.49552 4.5625 0.27344 0.92991-0.22207 1.5305-0.2832 0.98633-0.2832a4 4 0 0 0 4-4 4 4 0 0 0-3.5449-3.9082c0.0167-2.2568 0.0436-4.3983 0.34961-6.3496 0.10176-0.17094 0.19622-0.34464 0.25976-0.46289 0.17484-0.32533 0.25319-0.53754 0.32618-0.74023 0.14599-0.40538 0.24255-0.76183 0.36132-1.2344 0.34922-1.3893 0.43499-2.5102 0.56641-3.293a4 4 0 0 0-3.2832-4.6055 4 4 0 0 0-0.89453-0.04883zm-63.863 3.2305c-2.3088-0.0042-4.2892 0.0078-6.1035 0.17773-2.419 0.22657-4.8777 0.72615-6.834 2.6445-1.9563 1.9184-2.5352 4.5996-2.5762 7.2363-0.041 2.6367 0.35799 5.6516 0.98828 9.6211a4 4 0 0 0 4.5781 3.3242 4 4 0 0 0 3.3223-4.5781c-0.60804-3.8293-0.91429-6.5948-0.88867-8.2422 0.0182-1.1704 0.15061-1.5472 0.18945-1.6387 0.10901-0.04158 0.63118-0.2753 1.9668-0.40039 1.6884-0.15813 4.333-0.14062 7.7813-0.14062a4 4 0 0 0 4-4 4 4 0 0 0-4-4c-0.84874 0-1.6542-0.0025-2.4238-0.0039zm59.127 5.293c2e-3 0.0083 0.03 0.11213 0.0312 0.12695-3.3e-4 -0.0015-5e-3 -0.01219-6e-3 -0.01367-0.0309-0.12771-0.0301-0.13895-0.0254-0.11328zm-27 26.369c-1.6774 0.058-3.6698 0.21081-5.6719 0.40234-2.002 0.19153-3.9986 0.42187-5.6387 0.64453-1.6401 0.22267-2.455 0.24699-3.8809 0.70703-0.42182 0.13614-0.33765 0.11977-0.5625 0.20313-0.22553 0.0836-0.50806 0.18944-0.79297 0.29883-0.2849 0.10939-0.56587 0.2193-0.82812 0.32812-0.13113 0.0544-0.25159 0.10325-0.41797 0.18164-0.0832 0.0392-0.17019 0.0797-0.3457 0.17969-0.0878 0.05-0.19453 0.10932-0.38868 0.25-0.19414 0.14069-0.48901 0.17533-1.0996 1.1992-0.92044 1.5437-0.70113 2.0669-0.74219 2.75-0.0411 0.6831-0.0291 1.3587 6e-3 2.0957 0.0697 1.4741 0.24225 3.1665 0.45508 4.8633 0.21282 1.6968 0.46721 3.3824 0.71093 4.7812 0.24373 1.3989 0.30133 2.1268 0.77149 3.4102 0.49643 1.3551 1.0502 2.2171 1.8457 3.4863 0.39778 0.63461 0.82056 1.2661 1.2949 1.8711 0.47437 0.60501 0.73111 1.175 2.1348 1.9414 2.0764 1.1337 2.601 0.69187 3.5586 0.68554 0.95759-6e-3 1.9524-0.0797 2.9297-0.17578 1.9546-0.19216 3.2198-0.3241 4.5606-0.65234 0.61425-0.1504 0.93336-0.43625 1.3086-0.69531 0.0813-0.0111 0.0965-0.022 0.22656-0.0254 0.56737-0.0147 1.4768 0.0811 2.8809-0.29688 1.3072-0.35194 1.6198-0.70822 1.5938-0.73633 6e-5 0.22522 6e-3 0.39476 6e-3 0.6211-5e-3 1.9196-0.0307 3.862-0.0742 5.3887s-0.25651 3.2162-0.10937 2.4805c-0.35254 1.7627-0.55635 3.1284-0.90821 4.1797-0.5822 1.7394-0.32765 2.6503-0.26562 3.4258 0.0455 0.56921 0.029 1.1093 0.0527 1.1152-0.43493 2.7481-1.7445 6.1074-2.5078 9.9238-0.64597 3.2299 0.0184 5.0896 0 5.1816-0.40435 2.0217-0.67853 3.8496-1.0352 5.6328-0.71289 3.5644-6e-3 6.0416-0.0332 7.1367-0.0764 7.8e-4 -0.30094 0.57512-0.50976 1.8281-0.89148 5.3489 0.45308 9.719 0 12.438-0.0372 0.22325-0.0768 0.31649-0.12305 0.48828a4 4 0 0 0-0.35156 1.1973c-2e-3 -4e-5 -0.0957-2e-3 -0.0957-2e-3 -1e-5 1e-4 -0.0164 0.24396-0.0176 0.29492-5e-3 0.20386-5.3e-4 0.1805 0 0.20117 2e-3 0.0827 9.5e-4 0.0588 2e-3 0.0879 3e-3 0.1165 0.0137 0.51651 0.0137 1.5 0 1.3672 0.14824 2.9324 0.21289 4.4336 0.0536 1.2446-0.12301 2.58-0.0664 2.6504-0.20417 0.30973-0.46841 0.70143-0.61132 1.5625-0.47552 2.865 4e-3 4.4871 0.0254 4.3828 0.0472-0.23383-0.23923 1.0064-0.4668 1.9043-0.0919 0.36258-0.17474 0.68449-0.25195 0.97656-0.24881 0.32803-0.51284 0.60954-0.69922 1.1641-0.11559 0.34387-0.0763 0.52499-0.11719 0.80078-0.0777 0.0824 0.0125-0.02-0.11914 0.10547-0.50486 0.481-1.4145 1.2748-2.1191 2.6797a4.0004 4.0004 0 0 0-4e-3 4e-3c-3.1e-4 6.3e-4 -0.23284 0.56213-0.27734 0.72265-0.0445 0.16053-0.0661 0.2695-0.082 0.35743-0.032 0.17586-0.0396 0.27102-0.0469 0.34765-3e-3 0.0357-2e-3 0.0388-4e-3 0.0664-0.25162 0.36815-0.40269 0.64736-0.57227 0.98437-0.36782 0.73056-0.43619 1.3164-0.44336 1.793 1e-3 1e-3 -9e-3 0.0349-0.0215 0.0742-0.0223-0.16389-0.70129 0.41993-1.582 2.1816-0.3609 0.72181-0.42717 1.3156-0.45313 1.8398-0.24529 0.31727-0.52173 0.79121-0.76953 1.5781-0.31942 1.0144-0.39038 1.6783-0.5332 2.3926-0.10939 0.54708-0.17137 0.70322-0.0937 0.60742-0.0401 0.0469-0.0498 0.0738-0.0977 0.11719-0.28859 0.26211-0.60691 0.49558-1.1328 1.0215-1.0762 1.0762-2.0561 1.4869-3.5938 1.7598-1.5376 0.27285-3.582 0.25586-5.9961 0.25586-1.1545 0-1.9103 0.14263-2.6894 0.19336-0.34353 0.0224-0.66173-0.0677-0.8457-0.11329-1.1202-0.5741-1.899-0.92443-2.7031-1.7285a4 4 0 0 0-5.6562 0 4 4 0 0 0 0 5.6562c1.8645 1.8645 3.7345 2.7584 5.2617 3.5469 2.374 1.2257 3.3424 0.69405 4.4629 0.6211 1.1206-0.0729 2.2867-0.17578 2.1699-0.17578 2.2901 0 4.7503 0.0903 7.3945-0.37891 2.6442-0.46924 5.522-1.651 7.8516-3.9805-0.10253 0.10253 0.37517-0.31963 0.85547-0.75586s1.0337-0.73699 1.7598-2.1074c0.82396-1.5552 0.73303-2.1434 0.89844-2.9707 0.11166-0.55843 0.15838-0.77761 0.21484-1.0508 0.26569-0.25332 0.64833-0.64843 1.0469-1.7812 0.17417-0.4951 0.14754-0.80412 0.17969-1.1738 0.28455-0.33601 0.67033-0.87009 1.1406-1.793 0.39062-0.76656 0.40281-1.0075 0.49024-1.3535 0.0101-0.0118 0.0295-0.0296 0.0391-0.041 0.18941-0.22623 0.28269-0.37669 0.35547-0.4961 0.14555-0.23881 0.19815-0.35984 0.24414-0.46093 0.36788-0.80876 0.34088-0.90314 0.61328-1.748a4.0004 4.0004 0 0 0 2e-3 -2e-3c0.21925-0.68117 0.16287-0.70737 0.15625-0.80274 0.0661-0.068 2e-3 -4e-3 0.0977-0.0957 0.47759-0.45501 1.37-1.1825 2.084-2.6016 0.25311-0.50305 0.25504-0.86975 0.32032-1.2754 0.0687-0.11473 0.12992-0.1318 0.19726-0.26563 0.5186-1.0308 0.28853-0.72474 0.33594-0.88672 0.0474-0.16198 0.093-0.32982 0.14453-0.52148 0.10309-0.38333 0.22387-0.84927 0.34375-1.3223 0.23977-0.946 0.4165-1.6108 0.55273-2.2852 0.53896-2.6679 0.15183-4.1556 0.0664-4.4297 0.12577-0.2232 0.18234-0.22053 0.32227-0.63672 0.7658-2.2776 0.48832-3.7327 0.41406-5.457-0.0743-1.7243-0.20508-3.4675-0.20508-4.0898 0-0.39069-4e-3 -0.40308-6e-3 -0.65234 0.16463-0.5484 0.34622-1.0539 0.4707-1.8008 0.8915-5.3489-0.45308-9.719 0-12.438-0.11532 0.69195 0.22266 0.2149 0.51758-1.5547 0.62644-3.7586-0.19443-6.3014-0.0234-7.1562 0.40426-2.0213 0.68036-3.8491 1.0371-5.6328 0.64598-3.2299-0.0184-5.0896 0-5.1816 0.57-2.85 2.0355-6.4303 2.6289-10.584 0.21133-1.4793 2e-3 -2.0778-0.0449-2.6621-0.0467-0.58429 0.14635-1.0529-0.12305-0.24804 0.66181-1.9773 0.87632-3.7 1.166-5.1484 0.30277-1.5139 0.21537-2.1964 0.26172-3.8223 0.0463-1.6259 0.0732-3.6164 0.0781-5.5957 5e-3 -1.9793-0.0123-3.939-0.0566-5.5137-0.0222-0.78733-0.0506-1.4731-0.0918-2.0606-0.0206-0.2937-0.0416-0.5596-0.0781-0.84375s8e-3 -0.45327-0.30078-1.2598c-0.68875-1.7997-0.92142-1.9939-1.0957-2.125 0.28173-0.4399 0.58385-1.0525 0.77149-1.9922 0.37608-1.8833-0.0793-2.1221-0.22656-2.5488-0.14731-0.42669-0.29085-0.74216-0.42579-1.0332-0.0889-0.19183-0.0488-0.0832-0.13476-0.27344 0.14065-0.58503 0.50992-1.681-0.48633-3.5488-0.13451-0.25218-0.55552-1.3392-1.1816-2.5625s-1.4919-2.8427-3.5625-3.9414c-1.6596-0.88063-2.028-0.60051-2.7402-0.63672-0.7122-0.0362-1.466-0.029-2.3047 0zm1.334 7.9902c0.0577 0.087 0.0875 0.1058 0.15235 0.23242 0.20985 0.41 0.51688 1.0959 0.79297 1.7109-0.13861 0.49582-0.40064 1.3377 0.24023 3.0312 0.13126 0.34687 0.14379 0.31319 0.22266 0.48047-0.24903 0.40578-0.3608 0.95265-0.51563 1.6406a4 4 0 0 0-0.13086 0.17578c-0.13022 0.52413-0.0532 0.804-0.0976 1.2363 1e-3 0.0207-0.01 0.0299-8e-3 0.0508 4.3e-4 5e-3 3e-3 6e-3 4e-3 0.0117-0.12853 1.3475-0.0962 2.376 0.0391 3.1113-0.21008 0.0501-0.27756 3.9e-4 -0.52929 0.084-0.76986 0.25572-1.2446 0.62177-1.6016 0.96093-0.11885 2e-3 -0.14118 2e-3 -0.67578 0.0156-0.79726 0.0207-2.0131-0.0392-3.5976 0.76953-0.18801 0.096-0.2126 0.17844-0.36329 0.27539-0.41541 0.0567-1.4038 0.23497-2.709 0.36328-0.69991 0.0688-1.3301 0.10149-1.8594 0.11719-0.16516-0.23479-0.31699-0.4377-0.49804-0.72656-0.58972-0.94083-1.2615-2.3929-1.1133-1.9883 0.18899 0.5159-0.18432-0.78182-0.40235-2.0332-0.21803-1.2514-0.45812-2.8384-0.65429-4.4023-0.17579-1.4014-0.29382-2.7205-0.35938-3.8047 0.0461 0.0209 0.82911-0.15616 2.0957-0.32812 1.5111-0.20515 3.4283-0.428 5.3242-0.60938 1.8959-0.18137 3.7839-0.32259 5.1875-0.37109 0.45743-0.0158 0.73556-7e-3 1.0566-4e-3zm-3.3809 81.521c1e-3 0.0138 0.025 0.16462 0.0352 0.25-1e-3 -6e-3 -5e-3 -0.0213-6e-3 -0.0254-0.0737-0.47477-0.0299-0.23144-0.0293-0.22461z" color="#000000" fill="#f09" stroke-linecap="round" stroke-linejoin="round" style="-inkscape-stroke:none"/>
</svg>
