<?xml version="1.0" encoding="UTF-8" standalone="no"?>
<!-- Created with Inkscape (http://www.inkscape.org/) -->

<svg
   width="256"
   height="256"
   viewBox="0 0 256 256"
   version="1.1"
   id="svg5"
   inkscape:version="1.2.2 (b0a8486541, 2022-12-01)"
   sodipodi:docname="yargine.svg"
   inkscape:export-filename="yargine.png"
   inkscape:export-xdpi="96"
   inkscape:export-ydpi="96"
   xmlns:inkscape="http://www.inkscape.org/namespaces/inkscape"
   xmlns:sodipodi="http://sodipodi.sourceforge.net/DTD/sodipodi-0.dtd"
   xmlns="http://www.w3.org/2000/svg"
   xmlns:svg="http://www.w3.org/2000/svg">
  <sodipodi:namedview
     id="namedview7"
     pagecolor="#ffffff"
     bordercolor="#000000"
     borderopacity="0.25"
     inkscape:showpageshadow="2"
     inkscape:pageopacity="0.0"
     inkscape:pagecheckerboard="0"
     inkscape:deskcolor="#d1d1d1"
     inkscape:document-units="mm"
     showgrid="false"
     inkscape:zoom="1"
     inkscape:cx="131"
     inkscape:cy="118"
     inkscape:window-width="1366"
     inkscape:window-height="696"
     inkscape:window-x="0"
     inkscape:window-y="0"
     inkscape:window-maximized="1"
     inkscape:current-layer="layer1" />
  <defs
     id="defs2" />
  <g
     inkscape:label="Layer 1"
     inkscape:groupmode="layer"
     id="layer1">
    <path
       id="path1283"
       style="color:#000000;fill:#ff0099;stroke-linecap:round;stroke-linejoin:round;-inkscape-stroke:none;fill-opacity:1"
       d="m 234.22259,8.4589515 c -0.4714,0.020101 -1.03243,0.1045585 -1.73242,0.3378907 -1.02301,0.3410039 -1.32827,0.5397457 -1.6875,0.7246093 -0.001,6.195e-4 -0.005,0.00134 -0.006,0.00195 -0.45501,-0.00911 -1.06987,0.059272 -1.80664,0.3613281 -1.34336,0.5507364 -1.87495,1.0457394 -2.83594,1.7578124 -0.961,0.712073 -2.02607,1.567447 -3.06641,2.462891 -1.04034,0.895443 -2.04436,1.817326 -2.89844,2.71289 -0.42703,0.447783 -0.81466,0.883368 -1.18554,1.378906 -0.37089,0.49554 -0.79116,0.899779 -1.10157,2.208985 -0.1072,0.452224 0.005,0.323156 -0.0215,0.564453 a 4,4 0 0 0 -0.084,0.179688 4,4 0 0 0 0.0684,0.191406 c 0.014,0.307165 -0.0659,0.869395 -0.043,1.132812 0.0418,0.480981 0.10234,0.979333 0.16211,1.488282 0.11954,1.017898 0.22461,2.178647 0.22461,2.384765 0,0.460994 -0.17443,1.47725 0.043,3.015625 0.21735,1.538376 1.42832,3.868097 3.4043,4.904297 0.73975,0.387912 0.99545,0.347152 1.35352,0.394531 -0.14254,0.02675 0.17395,0.385847 1.55859,1.142578 0.69392,0.379232 1.09774,0.367793 1.56055,0.435547 0.0471,0.06317 -0.044,0.05182 0.46875,0.359375 1.13376,0.679985 1.34462,0.531255 1.64453,0.580078 0.29991,0.04882 0.53265,0.0696 0.77734,0.08789 0.48939,0.03659 1.00682,0.05283 1.59766,0.0625 1.18167,0.01933 2.62659,0.0067 4.10547,-0.01758 2.95775,-0.0485 6.19466,-0.142578 6.83398,-0.142578 a 4,4 0 0 0 4,-4 4,4 0 0 0 -4,-4 c -1.19534,0 -4.09001,0.09544 -6.96484,0.142578 -1.43742,0.02357 -2.83328,0.03411 -3.84375,0.01758 -0.14199,-0.0023 -0.193,-0.0082 -0.31836,-0.01172 -0.0165,-0.05896 0.14207,-0.05512 -0.7207,-0.529297 -0.76057,-0.417947 -1.22735,-0.427856 -1.71289,-0.480468 -0.30405,-0.228908 -0.5693,-0.451735 -1.23047,-0.794922 -0.32844,-0.170479 -0.3284,-0.08389 -0.57422,-0.166016 0.01,-0.328368 0.0176,-0.389194 0.0176,-1 0,-0.06932 -0.0146,-0.120902 -0.0156,-0.189453 0.98573,0.216348 1.7665,0.299001 2.92774,0.53125 2.1084,0.421681 3.25945,-0.0047 4.19726,-0.121094 0.3442,-0.04272 0.51089,-5.95e-4 0.67383,0.02344 0.14161,0.09415 0.0733,0.124638 0.25,0.216797 1.0215,0.532792 1.13445,0.402633 1.36328,0.439453 0.22883,0.03682 0.39656,0.05338 0.56836,0.06836 0.3436,0.02996 0.68852,0.04654 1.07812,0.06055 0.77922,0.02802 1.71027,0.03868 2.64649,0.03711 0.93621,-0.0016 1.86563,-0.01442 2.63867,-0.04297 0.38652,-0.01427 0.72864,-0.03152 1.05859,-0.05859 0.16498,-0.01354 0.32307,-0.02827 0.53125,-0.05859 0.20819,-0.03032 0.29604,0.06561 1.20508,-0.339844 1.86705,-0.83276 2.32515,-2.147776 2.61524,-2.947265 0.29008,-0.799489 0.38466,-1.436449 0.45703,-2.03125 0.14474,-1.189604 0.1289,-2.242174 0.1289,-2.644532 0,-3.446442 -1.44471,-6.697584 -3.89843,-8.496093 -2.45374,-1.7985094 -5.28082,-2.2031252 -7.99414,-2.2031251 -0.0118,0 -0.54422,-0.046354 -1.22461,-0.087891 -0.3402,-0.020768 -0.72197,-0.065023 -1.19336,-0.044922 z M 15.953058,13.654264 a 4,4 0 0 0 -1.25,0.05664 4,4 0 0 0 -3.113281,4.72461 c -0.0642,-0.312267 -0.489825,2.945427 -0.9375,6.207031 -0.223838,1.630801 -0.383564,3.419312 0.03906,5.396484 0.422626,1.977172 1.723765,4.2417 3.865235,5.503907 3.60365,2.124032 7.699725,2.202603 10.988281,0.810546 -0.01349,0.632876 -0.06641,1.745619 -0.06641,2.091797 0,1.825865 0.283987,3.890796 0.408203,5.914063 0.124216,2.023267 -0.396454,4.184014 0.01172,3.365234 -1.065826,2.138016 -1.394946,4.150998 -2.087891,6.261719 -0.346473,1.05536 -0.721865,2.030055 -1.019531,2.617187 -0.127047,0.250594 -0.236855,0.349422 -0.291016,0.402344 -0.03924,0.01906 -0.03554,0.01749 -0.07226,0.03516 -0.0599,-0.01138 -0.138885,-0.05041 -0.195313,-0.05859 -1.517643,-0.220113 -2.426811,0.04254 -3.964844,0.4375 -0.912001,0.2342 -1.521161,0.661059 -1.96289,1.068359 -0.155255,-0.01134 -0.26311,0.0023 -0.480469,-0.06836 -0.758097,-0.24635 -1.705141,-0.937563 -1.527344,-0.759766 a 4,4 0 0 0 -5.6582031,0 4,4 0 0 0 0,5.658203 c 1.3930861,1.393087 2.8633751,2.107969 4.7128911,2.708985 1.849515,0.601014 4.132859,1.169265 6.763672,-0.19336 0.426225,-0.220763 0.581768,-0.429657 0.84375,-0.65039 1.486623,0.519386 2.350998,0.179645 2.822265,0.02734 1.015607,-0.32821 1.588096,-0.667312 2.916016,-1.365234 1.977309,-1.039225 2.608115,-2.397435 3.230469,-3.625 0.622352,-1.227565 1.076727,-2.496582 1.484375,-3.738281 0.815294,-2.483398 1.692311,-5.281381 1.646484,-5.189453 1.480185,-2.969206 0.958241,-5.081772 0.814453,-7.423828 -0.143787,-2.342056 -0.394531,-4.734565 -0.394531,-5.423829 0,-0.71212 0.05354,-3.387624 0.189453,-5.880859 0.06796,-1.246618 0.157291,-2.474126 0.259766,-3.382812 0.02149,-0.190575 0.06995,-0.312464 0.113281,-0.494141 0.379712,-0.377653 0.800024,-0.939144 1.097656,-1.771485 0.595971,-1.666658 0.41,-2.637001 0.357422,-3.52539 -0.05258,-0.888389 -0.123047,-1.674954 -0.123047,-1.785156 v -2.851563 a 4.0004,4.0004 0 0 0 -8,0 v 0.125 c -0.07744,0.144912 -0.358532,0.660603 -0.740234,1.695313 -0.627935,1.702187 -0.324642,2.733449 -0.220703,3.27539 -1.012861,2.453861 -2.41655,4.326146 -3.595703,5.060547 -1.258117,0.783582 -2.04765,1.007243 -4.197266,-0.259765 -0.133219,-0.07852 -0.01285,0.150087 -0.105469,-0.283204 -0.09262,-0.43329 -0.101356,-1.428673 0.06445,-2.636718 0.331624,-2.416092 1.640316,-5.050852 0.847656,-8.90625 a 4,4 0 0 0 -3.472656,-3.169922 z m 218.974612,2.833984 c 0.36221,0.02211 0.88883,0.103516 1.71289,0.103516 1.77543,0 2.89577,0.385162 3.26562,0.65625 0.36985,0.271086 0.62695,0.368485 0.62695,2.042968 0,0.02998 -0.004,0.08075 -0.004,0.113282 -0.23131,0.0022 -0.40928,0.0094 -0.64453,0.0098 -0.80745,0.0014 -1.59265,-0.0097 -2.20117,-0.0293 -0.0649,-0.04083 -0.0263,-0.04706 -0.0977,-0.08789 -2.43675,-1.394564 -4.05348,-0.816699 -5.25195,-0.667969 -1.19849,0.148731 -2.23208,0.09929 -1.64454,0.216797 -0.18081,-0.03616 -0.39449,-0.08938 -0.57812,-0.128906 0.26407,-0.206287 0.5708,-0.471734 0.80664,-0.646485 0.5187,-0.38434 0.60621,-0.431312 0.75195,-0.53125 0.33584,-0.02968 0.62411,-0.01444 1.08008,-0.171875 1.08216,-0.37362 1.69067,-0.70626 2.03906,-0.876953 0.0444,-0.002 0.0837,-0.0053 0.13868,-0.002 z m -8.2793,11.744141 c 0.0223,-0.0015 0.10011,0.03926 0.125,0.03906 -0.10904,0.03947 -0.33494,0.08471 -0.38281,0.09375 -0.12089,0.02284 -0.0561,-0.112351 0.25781,-0.132812 z m 1.22851,7.992187 c 0.12832,-0.02424 -0.008,0.09053 -0.38281,0.09375 0.10946,-0.0397 0.33501,-0.08472 0.38281,-0.09375 z m -29.13476,4.126953 c -0.29808,0.0022 -0.55514,0.01367 -0.76563,0.01367 -2.39958,0 -4.69096,0.07702 -6.95703,1.335938 -2.26606,1.258917 -3.70882,3.40156 -4.88281,5.916015 -0.78965,1.691288 -0.66737,2.742963 -0.6582,3.892578 0.009,1.149617 0.10636,2.307285 0.20117,3.427735 0.18222,2.153443 0.11208,4.367618 0.20117,4.183594 -0.0454,0.08629 -0.078,0.15031 -0.12891,0.246093 -0.11066,0.208129 -0.22622,0.424347 -0.33007,0.623047 -0.10385,0.198701 -0.0425,-0.177186 -0.41211,0.908203 a 4.0004,4.0004 0 0 0 0,0.002 c -0.17478,0.513917 -0.15139,0.723113 -0.19336,1.048828 -0.17107,0.493775 -0.34262,0.988665 -0.51367,1.482422 a 4,4 0 0 0 2.4707,5.08789 4,4 0 0 0 5.08984,-2.46875 c 0.2378,-0.686405 0.4751,-1.374175 0.71289,-2.060547 a 4.0004,4.0004 0 0 0 0.10352,-0.611328 c 0.0474,-0.08911 0.0828,-0.158097 0.13476,-0.255859 0.11638,-0.218866 0.2373,-0.445069 0.34961,-0.666016 0.0562,-0.110473 0.10962,-0.217584 0.17188,-0.351562 0.0623,-0.13398 0.11268,-0.0958 0.29883,-0.81836 0.72745,-2.823721 0.20185,-4.847304 0.0176,-7.02539 -0.0922,-1.089044 -0.16817,-2.107732 -0.17382,-2.816407 -0.003,-0.321953 0.0504,-0.563862 0.0762,-0.699218 0.68811,-1.364252 1.15865,-1.943611 1.35156,-2.050782 0.21695,-0.120526 1.01392,-0.330078 3.07031,-0.330078 0.45761,0 0.21644,-0.0298 0.36328,-0.02344 0.088,0.718825 0.007,1.822462 0.42969,3.566406 0.42811,1.766289 1.11665,3.127278 1.76367,4.324219 -0.002,0.02234 -0.002,0.02316 -0.004,0.04687 -0.0215,0.323641 -0.21911,0.665721 0.25,1.958984 0.11693,0.322265 0.27556,0.435801 0.41797,0.673828 -0.005,0.214402 0.0113,0.638911 -0.10157,1.25586 -0.23688,1.295366 -1.02478,3.318905 0.39063,6.060546 0.17939,0.347479 0.0469,-0.267031 0.0469,0.94336 a 4,4 0 0 0 4,4 4,4 0 0 0 4,-4 c 0,-1.163572 -0.11028,-3.007175 -0.93945,-4.613281 0.46002,0.891057 0.13606,0.334121 0.37109,-0.951172 0.23505,-1.285294 1.02401,-3.280093 -0.34765,-6.023438 -0.006,-0.01181 -0.0117,-0.01179 -0.0176,-0.02344 0.004,-0.437203 0.0929,-1.049036 -0.55469,-2.226563 -0.75884,-1.37978 -1.27621,-2.385303 -1.5,-3.308593 -0.003,-0.01427 -0.055,-1.413405 -0.32422,-3.115235 -0.26918,-1.701829 -1.19578,-4.511228 -3.91406,-5.814453 -1.41438,-0.678105 -2.67021,-0.750604 -3.56445,-0.744141 z m -142.335937,3.06836 c -0.301958,-0.0058 -0.605767,-0.0017 -0.912109,0.01367 -2.450737,0.122614 -5.16502,1.352421 -6.78711,3.59375 -1.622088,2.241327 -2.21875,5.043989 -2.21875,8.335937 0,0.0055 -0.100719,1.169274 -0.167968,2.316406 -0.06725,1.147134 -0.4429,2.165215 0.498047,4.339844 0.592661,1.369704 1.993096,2.427682 3.054687,2.785156 1.061591,0.357476 1.830575,0.331562 2.417969,0.310547 0.881089,-0.03152 1.713352,0.102549 1.433594,0.002 1.255786,0.355898 2.499617,0.734607 4.095703,0.861328 1.601969,0.127189 3.430416,-0.283844 5.189453,-1.046874 0.429527,0.03297 0.887439,-0.02743 1.472656,-0.140626 a 4,4 0 0 0 0.181641,0.4375 4,4 0 0 0 5.658203,0 c 1.456166,-1.456166 1.57803,-2.768081 1.699219,-3.839843 0.121188,-1.071763 0.07863,-1.990563 -0.136719,-2.984375 -0.09704,-0.447854 -0.0895,-1.756634 -0.228516,-3.445313 -0.139019,-1.688677 -0.590444,-4.276371 -2.818359,-6.091797 -0.01529,-0.01246 -0.04144,-0.01884 -0.05664,-0.03125 a 4,4 0 0 0 -0.03711,-0.04297 c -3.765105,-2.886194 -7.808522,-5.28636 -12.337891,-5.37309 z m -0.511719,8.003906 c 0.796542,-0.03985 2.691782,0.721308 4.765626,1.816406 0.05771,0.375896 0.103717,0.771723 0.18164,1.115235 0.248291,1.094545 0.559521,2.136161 0.75586,2.908203 -0.499442,0.07529 -0.995766,0.03532 -1.431641,0.269531 -1.009102,0.542221 -1.168838,0.513743 -1.710938,0.470703 -0.542098,-0.04304 -1.631074,-0.353504 -3.371093,-0.814453 -0.362282,-0.09597 -0.430581,-0.03659 -0.708985,-0.08398 0.05079,-0.546715 0.113282,-1.04529 0.113281,-1.742188 10e-7,-2.258045 0.481989,-3.346326 0.699219,-3.646484 0.217231,-0.300159 0.104114,-0.262804 0.707031,-0.292969 z m -30.505859,7.726563 c 0.041,0.05752 0.163624,0.115459 0.195313,0.167968 0.293827,0.486883 0.333606,0.713709 0.333984,0.714844 3.86e-4,0.0012 -0.361678,-0.540801 -0.529297,-0.882812 z m 139.652345,3.107421 a 4,4 0 0 0 -2.82813,1.169922 4,4 0 0 0 0,5.658203 l 0.67383,0.673828 a 4,4 0 0 0 5.65625,0 4,4 0 0 0 0,-5.65625 l -0.67383,-0.675781 a 4,4 0 0 0 -2.82812,-1.169922 z m -145.988282,1.46875 c 0.07168,0.09407 0.215695,0.165582 0.304687,0.263672 -0.07581,-0.06441 -0.137437,-0.03588 -0.208984,-0.109375 -0.07759,-0.07971 -0.03044,-0.07378 -0.0957,-0.154297 z M 162.29095,76.72067 a 4,4 0 0 0 -3.71289,3.330078 c -0.14083,0.838858 -0.21502,1.326766 -0.30274,1.859375 -0.54923,0.65912 -0.61063,0.996621 -0.68359,1.207031 -0.35777,1.031664 -0.3251,1.287037 -0.51367,2.416016 -0.51463,3.081282 -0.53909,5.968425 -0.54102,8.810547 -0.0749,0.221909 -0.18172,0.523142 -0.30078,0.964844 -0.13449,0.498937 -0.3201,1.094136 -0.25391,2.146484 0.0662,1.052348 0.91074,3.125825 2.61914,3.917965 1.99816,0.9265 3.63259,0.49552 4.5625,0.27344 0.92991,-0.22207 1.53053,-0.2832 0.98633,-0.2832 a 4,4 0 0 0 4,-4.000002 4,4 0 0 0 -3.54492,-3.908203 c 0.0167,-2.256803 0.0436,-4.39832 0.34961,-6.349609 0.10176,-0.170944 0.19622,-0.344643 0.25976,-0.462891 0.17484,-0.32533 0.25319,-0.537544 0.32618,-0.740234 0.14599,-0.405383 0.24255,-0.761834 0.36132,-1.234375 0.34922,-1.389266 0.43499,-2.510222 0.56641,-3.292969 a 4,4 0 0 0 -3.2832,-4.605469 4,4 0 0 0 -0.89453,-0.04883 z m -63.863282,3.230469 c -2.308765,-0.0042 -4.289243,0.0078 -6.103516,0.177734 -2.419031,0.22657 -4.877723,0.726152 -6.833984,2.644531 -1.956262,1.918379 -2.535172,4.599627 -2.576172,7.236328 -0.041,2.636703 0.357989,5.651636 0.988281,9.621094 a 4,4 0 0 0 4.578125,3.324214 4,4 0 0 0 3.322266,-4.57812 c -0.608035,-3.829282 -0.914289,-6.594815 -0.888672,-8.242188 0.0182,-1.170366 0.150606,-1.547238 0.189453,-1.638671 0.109011,-0.04158 0.63118,-0.275296 1.966797,-0.400391 1.688363,-0.158134 4.332951,-0.140625 7.781254,-0.140625 a 4,4 0 0 0 3.99999,-4 4,4 0 0 0 -3.99999,-4 c -0.84874,0 -1.654244,-0.0025 -2.423832,-0.0039 z m 59.126952,5.292969 c 0.002,0.0083 0.03,0.112128 0.0312,0.126953 -3.3e-4,-0.0015 -0.005,-0.01219 -0.006,-0.01367 -0.0309,-0.12771 -0.0301,-0.138949 -0.0254,-0.113281 z m -27,26.369142 c -1.67739,0.058 -3.66981,0.21081 -5.67188,0.40234 -2.00204,0.19153 -3.99858,0.42187 -5.63867,0.64453 -1.64008,0.22267 -2.45502,0.24699 -3.88086,0.70703 -0.42182,0.13614 -0.33765,0.11977 -0.5625,0.20313 -0.22553,0.0836 -0.50806,0.18944 -0.79297,0.29883 -0.2849,0.10939 -0.56587,0.2193 -0.82812,0.32812 -0.13113,0.0544 -0.25159,0.10325 -0.41797,0.18164 -0.0832,0.0392 -0.17019,0.0797 -0.3457,0.17969 -0.0878,0.05 -0.19453,0.10932 -0.38868,0.25 -0.19414,0.14069 -0.48901,0.17533 -1.0996,1.19922 -0.92044,1.54368 -0.70113,2.06689 -0.74219,2.75 -0.0411,0.6831 -0.0291,1.35867 0.006,2.0957 0.0697,1.47407 0.24225,3.16653 0.45508,4.86328 0.21282,1.69677 0.46721,3.38242 0.71093,4.78125 0.24373,1.39886 0.30133,2.12678 0.77149,3.41016 0.49643,1.35509 1.05015,2.2171 1.8457,3.48633 0.39778,0.63461 0.82056,1.26608 1.29492,1.87109 0.47437,0.60501 0.73111,1.17501 2.13477,1.94141 2.07645,1.13373 2.601,0.69187 3.55859,0.68554 0.95759,-0.006 1.95238,-0.0797 2.92969,-0.17578 1.95462,-0.19216 3.2198,-0.3241 4.56055,-0.65234 0.61425,-0.1504 0.93336,-0.43625 1.30859,-0.69531 0.0813,-0.0111 0.0965,-0.022 0.22656,-0.0254 0.56737,-0.0147 1.47678,0.0811 2.88086,-0.29688 1.30718,-0.35194 1.61984,-0.70822 1.59375,-0.73633 6e-5,0.22522 0.006,0.39476 0.006,0.6211 -0.005,1.91961 -0.0307,3.862 -0.0742,5.38867 -0.0435,1.52667 -0.25651,3.21619 -0.10937,2.48047 -0.35254,1.76271 -0.55635,3.12844 -0.90821,4.17969 -0.5822,1.73945 -0.32765,2.6503 -0.26562,3.42578 0.0455,0.56921 0.029,1.10927 0.0527,1.11523 -0.43493,2.74813 -1.74451,6.10735 -2.50781,9.92383 -0.64597,3.22988 0.0184,5.0896 0,5.18164 -0.40435,2.02171 -0.67853,3.84955 -1.03515,5.63281 -0.71289,3.56438 -0.006,6.04165 -0.0332,7.13672 -0.0764,7.8e-4 -0.30094,0.57512 -0.50976,1.82813 -0.89148,5.34886 0.45308,9.719 0,12.4375 -0.0372,0.22325 -0.0768,0.31649 -0.12305,0.48828 a 4,4 0 0 0 -0.35156,1.19726 c -0.002,-4e-5 -0.0957,-0.002 -0.0957,-0.002 -1e-5,1e-4 -0.0164,0.24396 -0.0176,0.29492 -0.005,0.20386 -5.3e-4,0.1805 0,0.20117 0.002,0.0827 9.5e-4,0.0588 0.002,0.0879 0.003,0.1165 0.0137,0.51651 0.0137,1.5 0,1.36716 0.14824,2.93236 0.21289,4.4336 0.0536,1.24455 -0.12301,2.57998 -0.0664,2.65039 -0.20417,0.30973 -0.46841,0.70143 -0.61132,1.5625 -0.47552,2.86504 0.004,4.48706 0.0254,4.38281 0.0472,-0.23383 -0.23923,1.00643 -0.4668,1.9043 -0.0919,0.36258 -0.17474,0.68449 -0.25195,0.97656 -0.24881,0.32803 -0.51284,0.60954 -0.69922,1.16406 -0.11559,0.34387 -0.0763,0.52499 -0.11719,0.80078 -0.0777,0.0824 0.0125,-0.02 -0.11914,0.10547 -0.50486,0.481 -1.41447,1.27477 -2.11914,2.67969 a 4.0004,4.0004 0 0 0 -0.004,0.004 c -3.1e-4,6.3e-4 -0.23284,0.56213 -0.27734,0.72265 -0.0445,0.16053 -0.0661,0.2695 -0.082,0.35743 -0.032,0.17586 -0.0396,0.27102 -0.0469,0.34765 -0.003,0.0357 -0.002,0.0388 -0.004,0.0664 -0.25162,0.36815 -0.40269,0.64736 -0.57227,0.98437 -0.36782,0.73056 -0.43619,1.31638 -0.44336,1.79297 0.001,0.001 -0.009,0.0349 -0.0215,0.0742 -0.0223,-0.16389 -0.70129,0.41993 -1.58203,2.18164 -0.3609,0.72181 -0.42717,1.31559 -0.45313,1.83984 -0.24529,0.31727 -0.52173,0.79121 -0.76953,1.57813 -0.31942,1.01439 -0.39038,1.67829 -0.5332,2.39258 -0.10939,0.54708 -0.17137,0.70322 -0.0937,0.60742 -0.0401,0.0469 -0.0498,0.0738 -0.0977,0.11719 -0.28859,0.26211 -0.60691,0.49558 -1.13281,1.02148 -1.07622,1.0762 -2.05613,1.48691 -3.59375,1.75977 -1.53762,0.27285 -3.58203,0.25586 -5.9961,0.25586 -1.15447,0 -1.91031,0.14263 -2.68945,0.19336 -0.34353,0.0224 -0.66173,-0.0677 -0.8457,-0.11329 -1.12021,-0.5741 -1.89904,-0.92443 -2.70313,-1.72851 a 4,4 0 0 0 -5.656244,0 4,4 0 0 0 0,5.65625 c 1.864547,1.86454 3.734484,2.75838 5.261714,3.54687 2.37402,1.2257 3.34235,0.69405 4.46289,0.6211 1.12055,-0.0729 2.28666,-0.17578 2.16992,-0.17578 2.29011,0 4.75027,0.0903 7.39454,-0.37891 2.64424,-0.46924 5.52201,-1.65095 7.85156,-3.98047 -0.10253,0.10253 0.37517,-0.31963 0.85547,-0.75586 0.4803,-0.43623 1.03371,-0.73699 1.75976,-2.10742 0.82396,-1.55525 0.73303,-2.14344 0.89844,-2.9707 0.11166,-0.55843 0.15838,-0.77761 0.21484,-1.05078 0.26569,-0.25332 0.64833,-0.64843 1.04688,-1.78125 0.17417,-0.4951 0.14754,-0.80412 0.17969,-1.17383 0.28455,-0.33601 0.67033,-0.87009 1.14062,-1.79297 0.39062,-0.76656 0.40281,-1.0075 0.49024,-1.35352 0.0101,-0.0118 0.0295,-0.0296 0.0391,-0.041 0.18941,-0.22623 0.28269,-0.37669 0.35547,-0.4961 0.14555,-0.23881 0.19815,-0.35984 0.24414,-0.46093 0.36788,-0.80876 0.34088,-0.90314 0.61328,-1.74805 a 4.0004,4.0004 0 0 0 0.002,-0.002 c 0.21925,-0.68117 0.16287,-0.70737 0.15625,-0.80274 0.0661,-0.068 0.002,-0.004 0.0977,-0.0957 0.47759,-0.45501 1.37,-1.18253 2.08398,-2.60156 0.25311,-0.50305 0.25504,-0.86975 0.32032,-1.27539 0.0687,-0.11473 0.12992,-0.1318 0.19726,-0.26563 0.5186,-1.03077 0.28853,-0.72474 0.33594,-0.88672 0.0474,-0.16198 0.093,-0.32982 0.14453,-0.52148 0.10309,-0.38333 0.22387,-0.84927 0.34375,-1.32227 0.23977,-0.946 0.4165,-1.61075 0.55273,-2.28515 0.53896,-2.66788 0.15183,-4.15559 0.0664,-4.42969 0.12577,-0.2232 0.18234,-0.22053 0.32227,-0.63672 0.7658,-2.27764 0.48832,-3.73272 0.41406,-5.45703 -0.0743,-1.72431 -0.20508,-3.46746 -0.20508,-4.08985 0,-0.39069 -0.004,-0.40308 -0.006,-0.65234 0.16463,-0.5484 0.34622,-1.05386 0.4707,-1.80078 0.8915,-5.34889 -0.45308,-9.719 0,-12.4375 -0.11532,0.69195 0.22266,0.2149 0.51758,-1.55469 0.62644,-3.75856 -0.19443,-6.30138 -0.0234,-7.15625 0.40426,-2.02127 0.68036,-3.84908 1.03711,-5.63281 0.64598,-3.22988 -0.0184,-5.0896 0,-5.18164 0.57,-2.84997 2.03552,-6.43029 2.62891,-10.58399 0.21133,-1.47933 0.002,-2.07779 -0.0449,-2.66211 -0.0467,-0.58429 0.14635,-1.05292 -0.12305,-0.24804 0.66181,-1.97729 0.87632,-3.69995 1.16602,-5.14844 0.30277,-1.51388 0.21537,-2.19636 0.26172,-3.82226 0.0463,-1.62591 0.0732,-3.6164 0.0781,-5.59571 0.005,-1.97931 -0.0123,-3.939 -0.0566,-5.51367 -0.0222,-0.78733 -0.0506,-1.47314 -0.0918,-2.06055 -0.0206,-0.2937 -0.0416,-0.5596 -0.0781,-0.84375 -0.0365,-0.28415 0.008,-0.45327 -0.30078,-1.25976 -0.68875,-1.79971 -0.92142,-1.99387 -1.09571,-2.125 0.28173,-0.4399 0.58385,-1.05249 0.77149,-1.99219 0.37608,-1.88328 -0.0793,-2.12213 -0.22656,-2.54883 -0.14731,-0.42669 -0.29085,-0.74216 -0.42579,-1.0332 -0.0889,-0.19183 -0.0488,-0.0832 -0.13476,-0.27344 0.14065,-0.58503 0.50992,-1.68105 -0.48633,-3.54883 -0.13451,-0.25218 -0.55552,-1.33925 -1.18164,-2.5625 -0.62612,-1.22325 -1.4919,-2.84274 -3.5625,-3.9414 -1.65965,-0.88063 -2.02803,-0.60051 -2.74023,-0.63672 -0.7122,-0.0362 -1.466,-0.029 -2.30469,0 z m 1.33398,7.99023 c 0.0577,0.087 0.0875,0.1058 0.15235,0.23242 0.20985,0.41 0.51688,1.09592 0.79297,1.71094 -0.13861,0.49582 -0.40064,1.33767 0.24023,3.03125 0.13126,0.34687 0.14379,0.31319 0.22266,0.48047 -0.24903,0.40578 -0.3608,0.95265 -0.51563,1.64063 a 4,4 0 0 0 -0.13086,0.17578 c -0.13022,0.52413 -0.0532,0.804 -0.0976,1.23633 0.001,0.0207 -0.01,0.0299 -0.008,0.0508 4.3e-4,0.005 0.003,0.006 0.004,0.0117 -0.12853,1.34752 -0.0962,2.37605 0.0391,3.11132 -0.21008,0.0501 -0.27756,3.9e-4 -0.52929,0.084 -0.76986,0.25572 -1.24463,0.62177 -1.60157,0.96093 -0.11885,0.002 -0.14118,0.002 -0.67578,0.0156 -0.79726,0.0207 -2.0131,-0.0392 -3.59765,0.76953 -0.18801,0.096 -0.2126,0.17844 -0.36329,0.27539 -0.41541,0.0567 -1.40377,0.23497 -2.70898,0.36328 -0.69991,0.0688 -1.33008,0.10149 -1.85938,0.11719 -0.16516,-0.23479 -0.31699,-0.4377 -0.49804,-0.72656 -0.58972,-0.94083 -1.2615,-2.39286 -1.11328,-1.98828 0.18899,0.5159 -0.18432,-0.78182 -0.40235,-2.03321 -0.21803,-1.25136 -0.45812,-2.83836 -0.65429,-4.40234 -0.17579,-1.40142 -0.29382,-2.72046 -0.35938,-3.80469 0.0461,0.0209 0.82911,-0.15616 2.0957,-0.32812 1.51107,-0.20515 3.42832,-0.428 5.32422,-0.60938 1.89591,-0.18137 3.78394,-0.32259 5.1875,-0.37109 0.45743,-0.0158 0.73556,-0.007 1.05664,-0.004 z m -3.38086,81.52149 c 10e-4,0.0138 0.025,0.16462 0.0352,0.25 -10e-4,-0.006 -0.005,-0.0213 -0.006,-0.0254 -0.0737,-0.47477 -0.0299,-0.23144 -0.0293,-0.22461 z" />
  </g>
</svg>
